<mxfile host="app.diagrams.net" modified="2023-09-12T04:58:36.407Z" agent="Mozilla/5.0 (Macintosh; Intel Mac OS X 10_15_7) AppleWebKit/537.36 (KHTML, like Gecko) Chrome/116.0.0.0 Safari/537.36 Edg/116.0.1938.76" etag="ZmD72wp43GWrBglsFc9I" version="21.7.4" type="github">
  <diagram id="C5RBs43oDa-KdzZeNtuy" name="Page-1">
    <mxGraphModel dx="3771" dy="2115" grid="1" gridSize="10" guides="1" tooltips="1" connect="1" arrows="1" fold="1" page="1" pageScale="1" pageWidth="827" pageHeight="1169" math="0" shadow="0">
      <root>
        <mxCell id="WIyWlLk6GJQsqaUBKTNV-0" />
        <mxCell id="0kQqpDofq0T7DsCTvpSG-0" value="Background" style="" parent="WIyWlLk6GJQsqaUBKTNV-0" />
        <mxCell id="0kQqpDofq0T7DsCTvpSG-1" value="" style="rounded=0;whiteSpace=wrap;html=1;labelBackgroundColor=none;" vertex="1" parent="0kQqpDofq0T7DsCTvpSG-0">
          <mxGeometry width="1150" height="901" as="geometry" />
        </mxCell>
        <mxCell id="0kQqpDofq0T7DsCTvpSG-2" value="Foreground" style="" parent="WIyWlLk6GJQsqaUBKTNV-0" />
        <mxCell id="0kQqpDofq0T7DsCTvpSG-3" value="&lt;b style=&quot;border-color: var(--border-color);&quot;&gt;Components&amp;nbsp;&lt;/b&gt;&lt;b&gt;Layout&amp;nbsp;&lt;/b&gt;&lt;b&gt;Wireframe&amp;nbsp;&lt;/b&gt;" style="text;html=1;align=left;verticalAlign=middle;whiteSpace=wrap;rounded=0;fontSize=20;fillColor=none;fontColor=default;labelBackgroundColor=none;" vertex="1" parent="0kQqpDofq0T7DsCTvpSG-2">
          <mxGeometry x="10" y="11" width="480" height="30" as="geometry" />
        </mxCell>
        <mxCell id="0kQqpDofq0T7DsCTvpSG-4" value="" style="swimlane;startSize=0;fillColor=none;fontColor=default;labelBackgroundColor=none;" vertex="1" parent="0kQqpDofq0T7DsCTvpSG-2">
          <mxGeometry x="230" y="61" width="910" height="830" as="geometry" />
        </mxCell>
        <mxCell id="0kQqpDofq0T7DsCTvpSG-5" value="&lt;span style=&quot;&quot;&gt;&lt;font&gt;Root&lt;/font&gt;&lt;/span&gt;" style="text;html=1;align=left;verticalAlign=middle;whiteSpace=wrap;rounded=0;spacingLeft=20;fillColor=none;fontColor=default;labelBackgroundColor=none;" vertex="1" parent="0kQqpDofq0T7DsCTvpSG-4">
          <mxGeometry width="100" height="20" as="geometry" />
        </mxCell>
        <mxCell id="0kQqpDofq0T7DsCTvpSG-6" value="" style="swimlane;startSize=0;fillColor=none;fontColor=default;labelBackgroundColor=none;" vertex="1" parent="0kQqpDofq0T7DsCTvpSG-4">
          <mxGeometry x="10" y="20" width="890" height="90" as="geometry" />
        </mxCell>
        <mxCell id="0kQqpDofq0T7DsCTvpSG-7" value="&lt;span style=&quot;&quot;&gt;&lt;font&gt;Header&lt;/font&gt;&lt;/span&gt;" style="text;html=1;align=left;verticalAlign=middle;whiteSpace=wrap;rounded=0;spacingLeft=20;fillColor=none;fontColor=default;labelBackgroundColor=none;" vertex="1" parent="0kQqpDofq0T7DsCTvpSG-6">
          <mxGeometry width="90" height="20" as="geometry" />
        </mxCell>
        <mxCell id="0kQqpDofq0T7DsCTvpSG-8" value="" style="swimlane;startSize=0;fillColor=none;fontColor=default;labelBackgroundColor=none;" vertex="1" parent="0kQqpDofq0T7DsCTvpSG-6">
          <mxGeometry x="110" y="30" width="100" height="40" as="geometry" />
        </mxCell>
        <mxCell id="0kQqpDofq0T7DsCTvpSG-9" value="&lt;span style=&quot;&quot;&gt;&lt;font&gt;AppBarLogo&lt;/font&gt;&lt;/span&gt;" style="text;html=1;align=left;verticalAlign=middle;whiteSpace=wrap;rounded=0;spacingLeft=20;fillColor=none;fontColor=default;labelBackgroundColor=none;" vertex="1" parent="0kQqpDofq0T7DsCTvpSG-8">
          <mxGeometry width="110" height="20" as="geometry" />
        </mxCell>
        <mxCell id="0kQqpDofq0T7DsCTvpSG-10" value="" style="swimlane;startSize=0;fillColor=none;fontColor=default;labelBackgroundColor=none;" vertex="1" parent="0kQqpDofq0T7DsCTvpSG-4">
          <mxGeometry x="30" y="130" width="870" height="690" as="geometry" />
        </mxCell>
        <mxCell id="0kQqpDofq0T7DsCTvpSG-11" value="&lt;span style=&quot;&quot;&gt;&lt;font&gt;Main&lt;/font&gt;&lt;/span&gt;" style="text;html=1;align=left;verticalAlign=middle;whiteSpace=wrap;rounded=0;spacingLeft=20;fillColor=none;fontColor=default;labelBackgroundColor=none;" vertex="1" parent="0kQqpDofq0T7DsCTvpSG-10">
          <mxGeometry width="110" height="20" as="geometry" />
        </mxCell>
        <mxCell id="0kQqpDofq0T7DsCTvpSG-12" value="" style="swimlane;startSize=0;fillColor=none;fontColor=default;labelBackgroundColor=none;" vertex="1" parent="0kQqpDofq0T7DsCTvpSG-10">
          <mxGeometry x="10" y="100" width="850" height="40" as="geometry" />
        </mxCell>
        <mxCell id="0kQqpDofq0T7DsCTvpSG-13" value="&lt;span style=&quot;&quot;&gt;&lt;font&gt;MainNav&lt;/font&gt;&lt;/span&gt;" style="text;html=1;align=left;verticalAlign=middle;whiteSpace=wrap;rounded=0;spacingLeft=20;fillColor=none;fontColor=default;labelBackgroundColor=none;" vertex="1" parent="0kQqpDofq0T7DsCTvpSG-12">
          <mxGeometry width="200" height="20" as="geometry" />
        </mxCell>
        <mxCell id="0kQqpDofq0T7DsCTvpSG-14" value="" style="swimlane;startSize=0;fillColor=none;fontColor=default;labelBackgroundColor=none;" vertex="1" parent="0kQqpDofq0T7DsCTvpSG-10">
          <mxGeometry x="10" y="30" width="850" height="60" as="geometry" />
        </mxCell>
        <mxCell id="0kQqpDofq0T7DsCTvpSG-15" value="&lt;span style=&quot;&quot;&gt;&lt;font&gt;MainHeader&lt;/font&gt;&lt;/span&gt;" style="text;html=1;align=left;verticalAlign=middle;whiteSpace=wrap;rounded=0;spacingLeft=20;fillColor=none;fontColor=default;labelBackgroundColor=none;" vertex="1" parent="0kQqpDofq0T7DsCTvpSG-14">
          <mxGeometry width="200" height="20" as="geometry" />
        </mxCell>
        <mxCell id="0kQqpDofq0T7DsCTvpSG-16" value="" style="swimlane;startSize=0;fillColor=none;fontColor=default;labelBackgroundColor=none;" vertex="1" parent="0kQqpDofq0T7DsCTvpSG-2">
          <mxGeometry x="260" y="101" width="860" height="60" as="geometry" />
        </mxCell>
        <mxCell id="0kQqpDofq0T7DsCTvpSG-17" value="&lt;span style=&quot;&quot;&gt;&lt;font&gt;AppBarTop&lt;/font&gt;&lt;/span&gt;" style="text;html=1;align=left;verticalAlign=middle;whiteSpace=wrap;rounded=0;spacingLeft=20;fillColor=none;fontColor=default;labelBackgroundColor=none;" vertex="1" parent="0kQqpDofq0T7DsCTvpSG-16">
          <mxGeometry width="100" height="20" as="geometry" />
        </mxCell>
        <mxCell id="0kQqpDofq0T7DsCTvpSG-18" value="" style="swimlane;startSize=0;swimlaneFillColor=default;fillColor=#f5f5f5;fontColor=#333333;labelBackgroundColor=none;strokeColor=default;" vertex="1" parent="0kQqpDofq0T7DsCTvpSG-2">
          <mxGeometry y="91" width="250" height="790" as="geometry" />
        </mxCell>
        <mxCell id="0kQqpDofq0T7DsCTvpSG-19" value="&lt;span style=&quot;&quot;&gt;&lt;font&gt;NavDrawer&lt;/font&gt;&lt;/span&gt;" style="text;html=1;align=left;verticalAlign=middle;whiteSpace=wrap;rounded=0;spacingLeft=20;fillColor=none;fontColor=default;labelBackgroundColor=none;" vertex="1" parent="0kQqpDofq0T7DsCTvpSG-18">
          <mxGeometry width="110" height="20" as="geometry" />
        </mxCell>
        <mxCell id="0kQqpDofq0T7DsCTvpSG-20" value="" style="swimlane;startSize=0;fillColor=none;fontColor=default;labelBackgroundColor=none;" vertex="1" parent="0kQqpDofq0T7DsCTvpSG-18">
          <mxGeometry x="10" y="20" width="230" height="60" as="geometry" />
        </mxCell>
        <mxCell id="0kQqpDofq0T7DsCTvpSG-21" value="&lt;span style=&quot;&quot;&gt;&lt;font&gt;NavHeader&lt;/font&gt;&lt;/span&gt;" style="text;html=1;align=left;verticalAlign=middle;whiteSpace=wrap;rounded=0;spacingLeft=20;fillColor=none;fontColor=default;labelBackgroundColor=none;" vertex="1" parent="0kQqpDofq0T7DsCTvpSG-20">
          <mxGeometry width="110" height="20" as="geometry" />
        </mxCell>
        <mxCell id="0kQqpDofq0T7DsCTvpSG-22" value="" style="swimlane;startSize=0;fillColor=none;fontColor=default;labelBackgroundColor=none;" vertex="1" parent="0kQqpDofq0T7DsCTvpSG-18">
          <mxGeometry x="10" y="90" width="230" height="620" as="geometry" />
        </mxCell>
        <mxCell id="0kQqpDofq0T7DsCTvpSG-23" value="&lt;span style=&quot;&quot;&gt;&lt;font&gt;NavMenu&lt;/font&gt;&lt;/span&gt;" style="text;html=1;align=left;verticalAlign=middle;whiteSpace=wrap;rounded=0;spacingLeft=20;fillColor=none;fontColor=default;labelBackgroundColor=none;" vertex="1" parent="0kQqpDofq0T7DsCTvpSG-22">
          <mxGeometry width="110" height="20" as="geometry" />
        </mxCell>
        <mxCell id="0kQqpDofq0T7DsCTvpSG-24" value="" style="swimlane;startSize=0;fillColor=none;fontColor=default;labelBackgroundColor=none;" vertex="1" parent="0kQqpDofq0T7DsCTvpSG-22">
          <mxGeometry x="60" y="20" width="160" height="590" as="geometry" />
        </mxCell>
        <mxCell id="0kQqpDofq0T7DsCTvpSG-25" value="&lt;span style=&quot;&quot;&gt;&lt;font&gt;NavMenuList&lt;/font&gt;&lt;/span&gt;" style="text;html=1;align=left;verticalAlign=middle;whiteSpace=wrap;rounded=0;spacingLeft=20;fillColor=none;fontColor=default;labelBackgroundColor=none;" vertex="1" parent="0kQqpDofq0T7DsCTvpSG-24">
          <mxGeometry width="110" height="20" as="geometry" />
        </mxCell>
        <mxCell id="0kQqpDofq0T7DsCTvpSG-26" value="" style="swimlane;startSize=0;fillColor=none;fontColor=default;labelBackgroundColor=none;" vertex="1" parent="0kQqpDofq0T7DsCTvpSG-18">
          <mxGeometry x="10" y="720" width="230" height="60" as="geometry" />
        </mxCell>
        <mxCell id="0kQqpDofq0T7DsCTvpSG-27" value="&lt;span style=&quot;&quot;&gt;&lt;font&gt;Footer&lt;/font&gt;&lt;/span&gt;" style="text;html=1;align=left;verticalAlign=middle;whiteSpace=wrap;rounded=0;spacingLeft=20;fillColor=none;fontColor=default;labelBackgroundColor=none;" vertex="1" parent="0kQqpDofq0T7DsCTvpSG-26">
          <mxGeometry width="110" height="20" as="geometry" />
        </mxCell>
        <mxCell id="0kQqpDofq0T7DsCTvpSG-28" value="" style="swimlane;startSize=0;fillColor=none;fontColor=default;labelBackgroundColor=none;" vertex="1" parent="0kQqpDofq0T7DsCTvpSG-2">
          <mxGeometry x="270" y="341" width="840" height="530" as="geometry" />
        </mxCell>
        <mxCell id="0kQqpDofq0T7DsCTvpSG-29" value="&lt;span style=&quot;&quot;&gt;&lt;font&gt;MainBody&lt;/font&gt;&lt;/span&gt;" style="text;html=1;align=left;verticalAlign=middle;whiteSpace=wrap;rounded=0;spacingLeft=20;fillColor=none;fontColor=default;labelBackgroundColor=none;" vertex="1" parent="0kQqpDofq0T7DsCTvpSG-28">
          <mxGeometry width="200" height="20" as="geometry" />
        </mxCell>
        <mxCell id="0kQqpDofq0T7DsCTvpSG-36" value="" style="swimlane;startSize=0;fillColor=none;fontColor=default;labelBackgroundColor=none;" vertex="1" parent="0kQqpDofq0T7DsCTvpSG-2">
          <mxGeometry x="990" y="111" width="120" height="40" as="geometry" />
        </mxCell>
        <mxCell id="0kQqpDofq0T7DsCTvpSG-37" value="&lt;font style=&quot;&quot;&gt;AppBarNav&lt;/font&gt;" style="text;html=1;align=left;verticalAlign=middle;whiteSpace=wrap;rounded=0;spacingLeft=20;fillColor=none;fontColor=default;labelBackgroundColor=none;" vertex="1" parent="0kQqpDofq0T7DsCTvpSG-36">
          <mxGeometry width="110" height="20" as="geometry" />
        </mxCell>
        <mxCell id="0kQqpDofq0T7DsCTvpSG-38" value="" style="swimlane;startSize=0;fillColor=none;fontColor=default;labelBackgroundColor=none;" vertex="1" parent="0kQqpDofq0T7DsCTvpSG-2">
          <mxGeometry x="520" y="111" width="310" height="40" as="geometry" />
        </mxCell>
        <mxCell id="0kQqpDofq0T7DsCTvpSG-39" value="&lt;span style=&quot;&quot;&gt;&lt;font&gt;AppBarSearch&lt;/font&gt;&lt;/span&gt;" style="text;html=1;align=left;verticalAlign=middle;whiteSpace=wrap;rounded=0;spacingLeft=20;fillColor=none;fontColor=default;labelBackgroundColor=none;" vertex="1" parent="0kQqpDofq0T7DsCTvpSG-38">
          <mxGeometry width="110" height="20" as="geometry" />
        </mxCell>
        <mxCell id="0kQqpDofq0T7DsCTvpSG-40" value="" style="swimlane;startSize=0;swimlaneFillColor=default;fillColor=none;fontColor=default;labelBackgroundColor=none;" vertex="1" parent="0kQqpDofq0T7DsCTvpSG-2">
          <mxGeometry x="920" y="141" width="200" height="303" as="geometry" />
        </mxCell>
        <mxCell id="0kQqpDofq0T7DsCTvpSG-41" value="&lt;font style=&quot;&quot;&gt;AppBarMenu&lt;/font&gt;" style="text;html=1;align=left;verticalAlign=middle;whiteSpace=wrap;rounded=0;spacingLeft=20;fillColor=none;fontColor=default;labelBackgroundColor=none;" vertex="1" parent="0kQqpDofq0T7DsCTvpSG-40">
          <mxGeometry width="110" height="20" as="geometry" />
        </mxCell>
        <mxCell id="0kQqpDofq0T7DsCTvpSG-42" value="" style="swimlane;startSize=0;fillColor=none;fontColor=default;labelBackgroundColor=none;" vertex="1" parent="0kQqpDofq0T7DsCTvpSG-2">
          <mxGeometry x="930" y="171" width="180" height="260" as="geometry" />
        </mxCell>
        <mxCell id="0kQqpDofq0T7DsCTvpSG-43" value="&lt;span style=&quot;&quot;&gt;&lt;font&gt;AppBarMenuList&lt;/font&gt;&lt;/span&gt;" style="text;html=1;align=left;verticalAlign=middle;whiteSpace=wrap;rounded=0;spacingLeft=20;fillColor=none;fontColor=default;labelBackgroundColor=none;" vertex="1" parent="0kQqpDofq0T7DsCTvpSG-42">
          <mxGeometry width="110" height="20" as="geometry" />
        </mxCell>
      </root>
    </mxGraphModel>
  </diagram>
</mxfile>
